<svg xmlns="http://www.w3.org/2000/svg" width="165.657" height="191.058" viewBox="0 0 165.657 191.058">
  <g id="Record_Image" data-name="Record Image" transform="translate(0 -0.771)">
    <g id="Group_57" data-name="Group 57" transform="translate(81.769 0.771)">
      <path id="Path_55" data-name="Path 55" d="M216.861,111.088c0,8.941,5.505,15.1,14.447,15.1s15.174-6.626,15.174-15.567-5.3-15.717-14.237-15.717C221.521,94.908,216.861,102.146,216.861,111.088Z" transform="translate(-213.94 -90.077)" fill="#2e3062"/>
      <path id="Path_56" data-name="Path 56" d="M215.621,109.475s-3.125-4.726-1.472-8.369c1.711-3.77.842-2.944,1.268-5.776s2.489-4,4.959-4.406.778-3.251,4.2-4.272,6.167,2.553,8.368.952,7.609-2.389,9.128,0,2.87,2.373,4.489,2.3c1.949-.093,4.561,2.981,2.8,5.811s-4.733,1.706-4.322,3.656,2.921,5.382-.445,9.746C243.574,110.432,215.621,109.475,215.621,109.475Z" transform="translate(-212.495 -86.092)" fill="#2e3062"/>
      <g id="Group_43" data-name="Group 43" transform="translate(0 23.203)">
        <path id="Path_57" data-name="Path 57" d="M216.46,130.092s-2.484-3.313-4.331-.574.764,10.829,5.287,8.855Z" transform="translate(-211.53 -128.434)" fill="#fb876b"/>
        <g id="Group_41" data-name="Group 41" transform="translate(0.97 2.9)">
          <path id="Path_58" data-name="Path 58" d="M217.228,138.265a.382.382,0,0,1-.368-.279,5.91,5.91,0,0,0-3.315-3.52.382.382,0,0,1,.271-.715,6.585,6.585,0,0,1,3.78,4.029.382.382,0,0,1-.265.471A.378.378,0,0,1,217.228,138.265Z" transform="translate(-213.3 -133.726)" fill="#d45c48"/>
        </g>
        <g id="Group_42" data-name="Group 42" transform="translate(1.905 4.402)">
          <path id="Path_59" data-name="Path 59" d="M215.387,138.246a.382.382,0,0,1-.321-.589A3.484,3.484,0,0,1,216.5,136.5a.382.382,0,1,1,.312.7,2.764,2.764,0,0,0-1.1.872A.382.382,0,0,1,215.387,138.246Z" transform="translate(-215.006 -136.467)" fill="#d45c48"/>
        </g>
      </g>
      <g id="Group_49" data-name="Group 49" transform="translate(29.578 23.203)">
        <path id="Path_60" data-name="Path 60" d="M266.46,130.092s2.485-3.313,4.332-.574-.764,10.829-5.287,8.855Z" transform="translate(-265.505 -128.434)" fill="#fb876b"/>
        <g id="Group_46" data-name="Group 46" transform="translate(0.605 2.9)">
          <g id="Group_45" data-name="Group 45">
            <g id="Group_44" data-name="Group 44">
              <path id="Path_61" data-name="Path 61" d="M266.991,138.265a.382.382,0,0,0,.368-.279,5.91,5.91,0,0,1,3.315-3.52.382.382,0,0,0-.271-.715,6.583,6.583,0,0,0-3.78,4.029.382.382,0,0,0,.265.471A.378.378,0,0,0,266.991,138.265Z" transform="translate(-266.609 -133.726)" fill="#d45c48"/>
            </g>
          </g>
        </g>
        <g id="Group_48" data-name="Group 48" transform="translate(1.948 4.402)">
          <g id="Group_47" data-name="Group 47">
            <path id="Path_62" data-name="Path 62" d="M270.711,138.246a.382.382,0,0,0,.321-.589A3.483,3.483,0,0,0,269.6,136.5a.382.382,0,0,0-.312.7,2.769,2.769,0,0,1,1.1.872A.382.382,0,0,0,270.711,138.246Z" transform="translate(-269.059 -136.467)" fill="#d45c48"/>
          </g>
        </g>
      </g>
      <path id="Path_63" data-name="Path 63" d="M245.343,159.094v8.511a5.892,5.892,0,0,1-3.994,2.3c-3.731.442-7.772-3.5-7.772-3.5V159.66Z" transform="translate(-221.495 -119.09)" fill="#fba691"/>
      <path id="Path_64" data-name="Path 64" d="M245.343,159.094v3.57c-2.177,2.416-6.044,3.019-11.766,2.174V159.66Z" transform="translate(-221.495 -119.09)" fill="#fb876b"/>
      <path id="Path_65" data-name="Path 65" d="M217.987,118.421c.033.466.071.938.118,1.414.121,1.2.282,2.429.5,3.655.008.044.014.086.022.123,1.081,5.934,3.51,11.765,8.744,13.635,11.857,4.233,16.091-5.933,17.785-11.861.187-.658.357-1.39.5-2.172.006-.03.011-.063.019-.1.164-.877.307-1.812.428-2.774.09-.713.167-1.437.236-2.166.173-1.771.285-3.548.359-5.124a8.365,8.365,0,0,0-5.36-8.211c-4.863-1.87-12.247-3.35-19.244.616a8.4,8.4,0,0,0-4.263,7.148C217.806,114.245,217.83,116.257,217.987,118.421Z" transform="translate(-214.375 -93.711)" fill="#fba691"/>
      <path id="Path_66" data-name="Path 66" d="M218.121,130.981c.033.466.071.938.118,1.414.121,1.2.282,2.429.5,3.655.008.044.014.085.022.123,1.081,5.934,3.51,11.765,8.744,13.635,11.857,4.233,16.091-5.933,17.785-11.861.187-.658.357-1.39.5-2.172.005-.03.011-.063.019-.1.164-.877.307-1.812.428-2.774.09-.713.167-1.437.236-2.166l-1.777.464c-.507,2.684-1.269,6.593-2.262,8.417-1.555-3.795-10.2-.661-10.2-.661s-7.707-2.739-10.317-.016a71.917,71.917,0,0,1-2.344-7.74Zm13.873,9.379c6.221-.853,7.767.737,8.058,2.58a10.7,10.7,0,0,1-5.3,3.186,12.293,12.293,0,0,1-9.615-2.046C224.819,142.647,224.46,138.463,231.994,140.361Z" transform="translate(-214.509 -106.272)" fill="#2e3062"/>
      <path id="Path_67" data-name="Path 67" d="M234.9,131.039c0,.859-.443,1.555-.989,1.555s-.989-.7-.989-1.555.443-1.555.989-1.555S234.9,130.18,234.9,131.039Z" transform="translate(-221.2 -105.706)" fill="#2e3062"/>
      <path id="Path_68" data-name="Path 68" d="M255.832,131.039c0,.859-.443,1.555-.989,1.555s-.989-.7-.989-1.555.442-1.555.989-1.555S255.832,130.18,255.832,131.039Z" transform="translate(-230.661 -105.706)" fill="#2e3062"/>
      <path id="Path_69" data-name="Path 69" d="M256.212,122.08s-3.119-1.232-5.521-.2l.24,1.336s3.525-.3,5.3.421A2.319,2.319,0,0,0,256.212,122.08Z" transform="translate(-229.231 -102.083)" fill="#2e3062"/>
      <path id="Path_70" data-name="Path 70" d="M227.481,122.08s3.119-1.232,5.521-.2l-.24,1.336s-3.525-.3-5.3.421A2.319,2.319,0,0,1,227.481,122.08Z" transform="translate(-218.674 -102.083)" fill="#2e3062"/>
      <g id="Group_50" data-name="Group 50" transform="translate(16.43 24.556)">
        <path id="Path_71" data-name="Path 71" d="M243.2,138.423a4.082,4.082,0,0,1-1.409-.121.382.382,0,0,1,.2-.738,2.3,2.3,0,0,0,1.539-.042.416.416,0,0,0,.144-.376,57.878,57.878,0,0,0-.94-5.782.382.382,0,0,1,.749-.155,56.521,56.521,0,0,1,.955,5.923,1.166,1.166,0,0,1-.438.993A1.609,1.609,0,0,1,243.2,138.423Z" transform="translate(-241.511 -130.904)" fill="#fb876b"/>
      </g>
      <path id="Path_72" data-name="Path 72" d="M235.06,148.809c.312,1.572,1.35,4.463,4.848,4.463s4.489-2.642,4.827-4.463Z" transform="translate(-222.166 -114.441)" fill="#fff"/>
      <path id="Path_73" data-name="Path 73" d="M246.3,118.64h-1.732a12.545,12.545,0,0,0-.962-5.24c-1.184-3.176,1.335-4.576-.7-6.166s-7.108-.911-10.634-1.025a75.728,75.728,0,0,0-10.634.256c-1.387.317-.627,2.621-.119,4.406s-1.7,3.754-2.071,5.6a8.14,8.14,0,0,0,0,2.169H218c-.172-2.247-.2-4.338-.166-6.034a8.4,8.4,0,0,1,4.262-7.147c7-3.967,14.382-2.488,19.244-.62a8.373,8.373,0,0,1,5.363,8.214C246.624,114.767,246.5,116.715,246.3,118.64Z" transform="translate(-214.376 -93.712)" fill="#2e3062"/>
      <g id="Group_56" data-name="Group 56" transform="translate(1.653 21.549)">
        <g id="Group_51" data-name="Group 51" transform="translate(17.964)">
          <path id="Path_74" data-name="Path 74" d="M247.329,129.97a4.554,4.554,0,1,1,4.554,4.554A4.559,4.559,0,0,1,247.329,129.97Zm.71,0a3.844,3.844,0,1,0,3.844-3.844A3.849,3.849,0,0,0,248.039,129.97Z" transform="translate(-247.329 -125.416)" fill="#fff"/>
        </g>
        <g id="Group_52" data-name="Group 52" transform="translate(5.517)">
          <path id="Path_75" data-name="Path 75" d="M224.614,129.97a4.554,4.554,0,1,1,4.554,4.554A4.559,4.559,0,0,1,224.614,129.97Zm.71,0a3.844,3.844,0,1,0,3.844-3.844A3.848,3.848,0,0,0,225.324,129.97Z" transform="translate(-224.614 -125.416)" fill="#fff"/>
        </g>
        <g id="Group_53" data-name="Group 53" transform="translate(25.947 0.754)">
          <path id="Path_76" data-name="Path 76" d="M262.252,129.125a.354.354,0,0,0,.249-.1h0a5.6,5.6,0,0,1,4.8-1.394.355.355,0,0,0,.161-.692A6.218,6.218,0,0,0,262,128.518a.355.355,0,0,0,.251.607Z" transform="translate(-261.897 -126.791)" fill="#fff"/>
        </g>
        <g id="Group_54" data-name="Group 54" transform="translate(0 0.655)">
          <path id="Path_77" data-name="Path 77" d="M220.749,129.044a.355.355,0,0,0,.195-.652c-.136-.089-3.358-2.167-6.1-1.716a.355.355,0,1,0,.116.7c2.468-.407,5.565,1.59,5.6,1.61A.354.354,0,0,0,220.749,129.044Z" transform="translate(-214.546 -126.612)" fill="#fff"/>
        </g>
        <g id="Group_55" data-name="Group 55" transform="translate(13.799 1.67)">
          <path id="Path_78" data-name="Path 78" d="M240.3,130.324a2.87,2.87,0,0,1,1.96-1.152,2.616,2.616,0,0,1,1.868,1.15l.595-.388a3.29,3.29,0,0,0-2.462-1.471,3.54,3.54,0,0,0-2.536,1.446Z" transform="translate(-239.727 -128.463)" fill="#fff"/>
        </g>
      </g>
    </g>
    <path id="Path_79" data-name="Path 79" d="M184.148,396.859c37.512,0,68.107-7.514,68.107-16.726s-30.595-16.725-68.107-16.725-68.107,7.513-68.107,16.725S146.636,396.859,184.148,396.859Z" transform="translate(-86.598 -210.672)" fill="#272727" fill-rule="evenodd"/>
    <path id="Path_80" data-name="Path 80" d="M172.952,307.28l-22.358,47.709a1.181,1.181,0,0,1-1.328.669l-1.186-.255a1.186,1.186,0,0,1-.848-1.606l21.857-52.49Z" transform="translate(-100.655 -182.601)" fill="#6dabd0" fill-rule="evenodd"/>
    <path id="Path_81" data-name="Path 81" d="M184.368,307.281l-7.333,15.648a30.81,30.81,0,0,1-4.64-2.146l8.11-19.475Z" transform="translate(-112.071 -182.602)" fill="#4664a8" fill-rule="evenodd"/>
    <path id="Path_82" data-name="Path 82" d="M265.051,315.883l11.02,51.806a1.173,1.173,0,0,0,1.158.934h1.213a1.186,1.186,0,0,0,1.168-1.391l-9.522-56.375Z" transform="translate(-153.953 -186.919)" fill="#6dabd0" fill-rule="evenodd"/>
    <path id="Path_83" data-name="Path 83" d="M265.051,315.883l2.3,10.819q2.762-.8,5.119-1.733l-2.384-14.112Z" transform="translate(-153.953 -186.919)" fill="#4664a8" fill-rule="evenodd"/>
    <path id="Path_84" data-name="Path 84" d="M289.477,304.672,307.5,351.216a1.185,1.185,0,0,1-1.105,1.614h-1.308a1.166,1.166,0,0,1-1.095-.73l-17.836-42.9Z" transform="translate(-163.492 -184.123)" fill="#4664a8" fill-rule="evenodd"/>
    <path id="Path_85" data-name="Path 85" d="M156.7,237.859c12.607-62.613,80.847-51.613,87.15-26.728,1.8,7.113.688,18.952-2.925,30.044C226.125,286.607,148.073,273.62,156.7,237.859Z" transform="translate(-104.675 -132.928)" fill="#232446" fill-rule="evenodd"/>
    <path id="Path_86" data-name="Path 86" d="M232.3,191.844c15.293,1.425,28.276,9.286,30.86,19.482,1.8,7.113.687,18.952-2.926,30.044-8.955,27.495-41.073,33.588-63.131,26.191,20.343,2.13,43.714-5.951,51.143-28.76,3.613-11.092,4.727-22.931,2.925-30.044C249.306,201.381,241.994,195.225,232.3,191.844Z" transform="translate(-123.241 -133.123)" fill="#3a3c6c" fill-rule="evenodd"/>
    <g id="Group_58" data-name="Group 58" transform="translate(64.966 48.463)">
      <path id="Path_87" data-name="Path 87" d="M219.619,173.125s11.269.335,15.234,4.237c7.955,7.83,3.114,33.386-4.933,47.287.878,1.849.889,4.314-3.384,6.145a10.846,10.846,0,0,1-1.775.582,12.934,12.934,0,0,1-1.54,1.2c-22.266-3.86-41.366-7.323-41.366-7.323-1.328-.34-1.576-3.463.874-4.1a44.981,44.981,0,0,1,5.079-11.324c2.792-8.722-.677-23.172,4.141-31.746,0,0,10.463-4.959,16.2-4.959Z" transform="translate(-180.865 -173.125)" fill="#ffd300" fill-rule="evenodd"/>
      <path id="Path_88" data-name="Path 88" d="M234.383,178.27a8.573,8.573,0,0,1,2.007,1.418c7.955,7.83,3.114,33.386-4.933,47.287.878,1.849.889,4.314-3.384,6.145a10.9,10.9,0,0,1-1.775.583,12.934,12.934,0,0,1-1.54,1.2c-3.487-.6-6.9-1.2-10.167-1.773,1.448-13.888-17.14-14.849-17.14-14.849,11.452-3.425,27.506,2.354,27.506,2.354,13.581-12.625,11.92-31.484,9.426-42.364Zm-50.117,45.21c.208-.775.448-1.537.7-2.276a68.779,68.779,0,0,0,12.32,5.318Z" transform="translate(-182.402 -175.451)" fill="#c6a20e" fill-rule="evenodd"/>
    </g>
    <g id="Group_63" data-name="Group 63" transform="translate(44.76 19.833)">
      <g id="Group_59" data-name="Group 59" transform="translate(13.493)">
        <path id="Path_89" data-name="Path 89" d="M168.9,127.463l-.28,18.651,10.9-.118.266-18.147Z" transform="translate(-168.616 -123.855)" fill="#ebebeb" fill-rule="evenodd"/>
        <path id="Path_90" data-name="Path 90" d="M193.289,128.751l1.231-.161.1.8-1.231.16-.1-.8Z" transform="translate(-179.768 -124.364)" fill="#232446" fill-rule="evenodd"/>
        <path id="Path_91" data-name="Path 91" d="M184.178,120.879l.106,1.766-.805.047-.107-1.766.806-.047Z" transform="translate(-175.285 -120.879)" fill="#232446" fill-rule="evenodd"/>
      </g>
      <g id="Group_62" data-name="Group 62" transform="translate(0 9.309)">
        <g id="Group_60" data-name="Group 60" transform="translate(2.447 22.359)">
          <path id="Path_92" data-name="Path 92" d="M188.042,195.425s-.594-17.615-7.818-16.724-27.407,20.992-27.407,20.992l10.584,7.9,19.891-13.755Z" transform="translate(-150.428 -178.668)" fill="#ffd300" fill-rule="evenodd"/>
          <path id="Path_93" data-name="Path 93" d="M155.826,226.679c4.058,0,7.368-2.851,7.368-6.346s-3.31-6.347-7.368-6.347-7.368,2.851-7.368,6.347S151.768,226.679,155.826,226.679Z" transform="translate(-148.458 -194.633)" fill="#ffd300" fill-rule="evenodd"/>
        </g>
        <g id="Group_61" data-name="Group 61">
          <path id="Path_94" data-name="Path 94" d="M158.021,181.809a184.745,184.745,0,0,1-.6-29.428l4.517-3.285-5.449-8.16-7.035,9.471s-10.211,27.883-2.72,36.755S157.852,184.015,158.021,181.809Z" transform="translate(-143.993 -139.254)" fill="#ebb39d" fill-rule="evenodd"/>
          <path id="Path_95" data-name="Path 95" d="M158.447,211.658s-.2-1.764-.413-4.686c-.5,4.005-1.826,8-5.087,8.79-3.866.939-6.467-1.42-8.013-3.688a11.3,11.3,0,0,0,2.229,4.938C154.654,225.883,158.278,213.865,158.447,211.658Z" transform="translate(-144.419 -169.103)" fill="#dc8c8c" fill-rule="evenodd"/>
          <path id="Path_96" data-name="Path 96" d="M166.8,139.549l11.43-1.682s.841.124.643.891-2.746,1.386-2.746,1.386,4.615-1,4.936-.655.5,1.873-2.768,2.516a13.523,13.523,0,0,1,.553,2.3c0,.569-6.6,3.408-6.6,3.408Z" transform="translate(-154.304 -137.867)" fill="#dc8c8c" fill-rule="evenodd"/>
        </g>
      </g>
    </g>
    <g id="Group_66" data-name="Group 66" transform="translate(85.615 50.052)">
      <g id="Group_64" data-name="Group 64" transform="translate(27.778)">
        <path id="Path_97" data-name="Path 97" d="M269.317,182.161s-1.089-5.937,4.849-6.135,27.214,14.943,28.4,22.067-9.945,7.622-14.992,4.554S269.317,182.161,269.317,182.161Z" transform="translate(-269.239 -176.023)" fill="#ffd300" fill-rule="evenodd"/>
        <path id="Path_98" data-name="Path 98" d="M305.407,221.191c5.668,0,10.292-3.735,10.292-8.313s-4.624-8.313-10.292-8.313-10.292,3.735-10.292,8.313S299.738,221.191,305.407,221.191Z" transform="translate(-280.935 -188.925)" fill="#ffd300" fill-rule="evenodd"/>
      </g>
      <g id="Group_65" data-name="Group 65" transform="translate(0 18.89)">
        <path id="Path_99" data-name="Path 99" d="M281.813,211.9c-4.156-4.849-26.819,4.453-40.871,4.453l-9.847,3.119,4.849,9.054s4.306-2.821,5.1-4.7C246.519,224.119,294.477,227.757,281.813,211.9Z" transform="translate(-224.219 -210.496)" fill="#ebb39d" fill-rule="evenodd"/>
        <path id="Path_100" data-name="Path 100" d="M315.409,211.9c-1.173-1.369-3.823-1.609-7.338-1.25,2.625.628,6.951,2.191,6.531,5.621-.36,2.943-5.3,5.587-9.184,7.226C314.689,222.142,321.037,218.946,315.409,211.9Z" transform="translate(-257.814 -210.496)" fill="#3a3c6c" fill-rule="evenodd"/>
        <path id="Path_101" data-name="Path 101" d="M225.423,226.868l-6.759,7c-.451.467.483,1.13,1.365.92a6.2,6.2,0,0,0,2.491-1.618l-2.911,3.177c-1.009,1.1-.036,1.693,1.419,1.238a3.645,3.645,0,0,0,1.934-1.127,2.088,2.088,0,0,0,2.666-.176l1.205.556a2.315,2.315,0,0,0,2.287-.164l1.153-.748L227.8,231.3Z" transform="translate(-218.547 -217.896)" fill="#dc8c8c" fill-rule="evenodd"/>
      </g>
    </g>
    <g id="Group_67" data-name="Group 67" transform="translate(0 100.552)">
      <path id="Path_102" data-name="Path 102" d="M149.863,268.219h-6.532s-25.921-.217-30.077.377S97.26,290.381,95.639,324.212l13.855-.4c3.167-2.375,12.571-23.728,15.935-35.207,0,0,11.6,5.045,32.573,3.25,9.5,2.177,19.373-2.266,26.7-16.317Z" transform="translate(-77.376 -268.18)" fill="#7c6421" fill-rule="evenodd"/>
      <path id="Path_103" data-name="Path 103" d="M188.219,268.244h-6.532l-1.193-.009,26.532,5.8c-7.6,5.5-11.742,13.431-13.648,18.067q1.456-.084,2.979-.214c9.5,2.177,19.373-2.266,26.7-16.317Z" transform="translate(-115.732 -268.205)" fill="#7c6421" fill-rule="evenodd"/>
      <path id="Path_104" data-name="Path 104" d="M94.429,367.547a70.358,70.358,0,0,1,4.086,13.787,2.369,2.369,0,0,1-1.772,2.677c-6.1,1.517-24.139,5.714-30.025,3.834-7.125-2.276-3.562-7.125-3.167-7.719s17.024-12.184,17.024-12.184C84.59,364.39,90.437,363.627,94.429,367.547Z" transform="translate(-62.312 -311.911)" fill="#2e3062" fill-rule="evenodd"/>
      <path id="Path_105" data-name="Path 105" d="M171.35,294.208a5.912,5.912,0,0,1-5.293-3.406l-41.127-1.6c-.729,1.093-9.486,14.634-12.767,39.243l-.32-.042c3.43-25.725,12.843-39.415,12.87-39.455l.05-.075q20.748.832,41.5,1.613l.041.089a5.623,5.623,0,0,0,5.09,3.313Z" transform="translate(-84.701 -277.534)" fill="#7c6421" fill-rule="evenodd"/>
      <path id="Path_106" data-name="Path 106" d="M143.516,301.046c.012.016,3.593,5.852,33.688,6.136l0,.322c-30.269-.286-33.943-6.262-33.955-6.279Z" transform="translate(-98.896 -283.036)" fill="#7c6421" fill-rule="evenodd"/>
      <path id="Path_107" data-name="Path 107" d="M98.515,392.071a2.369,2.369,0,0,1-1.772,2.677c-6.1,1.517-24.139,5.714-30.025,3.834-7.125-2.276-3.562-7.125-3.167-7.719a26.706,26.706,0,0,1,2.38-1.829c2.454-1.768,5.108,3.533,2.432,6.027C68.362,395.061,71.989,400.133,98.515,392.071Z" transform="translate(-62.312 -322.648)" fill="#ddd" fill-rule="evenodd"/>
    </g>
    <g id="Group_68" data-name="Group 68" transform="translate(80.011 95.735)">
      <path id="Path_108" data-name="Path 108" d="M234.014,330.747c6.334-4.75,25.066-67.812,6.668-71.177s-22.278,41.47-19.6,69.989Z" transform="translate(-213.745 -259.39)" fill="#564c22" fill-rule="evenodd"/>
      <path id="Path_109" data-name="Path 109" d="M228.591,386.237s3.086,6.129,2.1,17.213-21.772,8.313-22.365,1.979l7.338-20.38C220.364,380.345,226.043,381.824,228.591,386.237Z" transform="translate(-208.322 -314.881)" fill="#2e3062" fill-rule="evenodd"/>
      <path id="Path_110" data-name="Path 110" d="M230.733,419.988c-.015.186-.03.374-.047.564-.99,11.084-21.772,8.313-22.365,1.979l.875-2.431c1.708.465,2.006,3.384,5.087,3.344a4.97,4.97,0,0,1,5.062-3.3,4.45,4.45,0,0,1,4.415,3.766S228.636,423.069,230.733,419.988Z" transform="translate(-208.322 -331.983)" fill="#ddd" fill-rule="evenodd"/>
      <path id="Path_111" data-name="Path 111" d="M223.568,388.8c.015-.011,5.61-3.7,10.143.01.944.773,1.164,1.277.887,1.615-.4.486-1.956.453-3.793.413-2.738-.059-6.125-.132-6.843,1.375a.832.832,0,0,0,.478,1.248,13.42,13.42,0,0,0,3.916.64c2.574.2,5.226.413,5.255,1.947.026,1.456-2.288,1.74-4.832,1.788-.629.011-1.274.009-1.9.007l-.707,0v-.322l.707,0c.623,0,1.265,0,1.893-.007,2.376-.044,4.537-.28,4.515-1.46-.023-1.239-2.527-1.437-4.958-1.629a13.55,13.55,0,0,1-4.028-.67,1.116,1.116,0,0,1-.632-1.679c.807-1.7,4.31-1.621,7.142-1.56,1.752.038,3.236.07,3.536-.3.147-.18-.075-.534-.841-1.161-4.349-3.563-9.749,0-9.763.01Z" transform="translate(-215.182 -317.14)" fill="#fff" fill-rule="evenodd"/>
    </g>
  </g>
</svg>
