<svg xmlns="http://www.w3.org/2000/svg" width="188.391" height="265.052" viewBox="0 0 188.391 265.052">
  <g id="Search_Image" data-name="Search Image" transform="translate(-199 -295)">
    <g id="Group_71" data-name="Group 71" transform="translate(-67 135)">
      <g id="Group_40" data-name="Group 40" transform="translate(266 160)">
        <path id="Path_1" data-name="Path 1" d="M221.82,391.331c0,3.8-23.1,6.879-51.586,6.879s-51.586-3.08-51.586-6.879,23.1-6.879,51.586-6.879S221.82,387.532,221.82,391.331Z" transform="translate(-118.648 -133.158)" fill="#272727"/>
        <path id="Path_2" data-name="Path 2" d="M184.061,224.81a33.147,33.147,0,0,0,20.513,22.226,47.278,47.278,0,0,0,14.118-5.361,42.626,42.626,0,0,1-2.313-9.289c-5.8,1.612-10.8,2.474-10.8,2.474-12.234-5.67-19.653-32.811-19.653-32.811C178.655,208.951,184.061,224.81,184.061,224.81Z" transform="translate(-117.713 -135.845)" fill="#ffd300"/>
        <path id="Path_3" data-name="Path 3" d="M143.556,362.062l-5.176,6.924a11.056,11.056,0,0,0,4.777,5.481l6.191-7.967Z" transform="translate(-118.357 -133.488)" fill="#fba691"/>
        <g id="Group_1" data-name="Group 1" transform="translate(12.479 234.362)">
          <path id="Path_4" data-name="Path 4" d="M142.408,372.237s2.421-.522,3.249.316,2.908,12.227,4.853,14.719-.013,3.815-1.211,4.32-18.354-16.636-18.354-16.636,4.242-5.859,6.287-7S140.237,371.031,142.408,372.237Z" transform="translate(-130.946 -367.765)" fill="#2e3062"/>
        </g>
        <g id="Group_5" data-name="Group 5" transform="translate(23.696 242.222)">
          <g id="Group_2" data-name="Group 2" transform="translate(0.283 1.822)">
            <path id="Path_5" data-name="Path 5" d="M142.561,378.744a.44.44,0,0,1-.249-.243.459.459,0,0,1,.235-.593,6.636,6.636,0,0,1,3.263-.546,3.014,3.014,0,0,1,2.372,2.035.457.457,0,0,1-.3.56.432.432,0,0,1-.542-.3,2.15,2.15,0,0,0-1.694-1.4,5.872,5.872,0,0,0-2.759.486A.427.427,0,0,1,142.561,378.744Z" transform="translate(-142.278 -377.308)" fill="#fff"/>
          </g>
          <g id="Group_3" data-name="Group 3">
            <path id="Path_6" data-name="Path 6" d="M142.282,376.948a.434.434,0,0,1-.249-.244.461.461,0,0,1,.235-.593,6.639,6.639,0,0,1,3.263-.546,3.014,3.014,0,0,1,2.373,2.035.458.458,0,0,1-.3.56.43.43,0,0,1-.541-.3,2.15,2.15,0,0,0-1.694-1.4,5.853,5.853,0,0,0-2.759.486A.421.421,0,0,1,142.282,376.948Z" transform="translate(-141.999 -375.512)" fill="#fff"/>
          </g>
          <g id="Group_4" data-name="Group 4" transform="translate(1.076 3.739)">
            <path id="Path_7" data-name="Path 7" d="M143.342,380.634a.438.438,0,0,1-.248-.245.459.459,0,0,1,.234-.593,6.657,6.657,0,0,1,3.264-.546,3.008,3.008,0,0,1,2.372,2.036.457.457,0,0,1-.3.559.431.431,0,0,1-.542-.3,2.148,2.148,0,0,0-1.694-1.4,5.848,5.848,0,0,0-2.759.485A.426.426,0,0,1,143.342,380.634Z" transform="translate(-143.06 -379.197)" fill="#fff"/>
          </g>
        </g>
        <path id="Path_8" data-name="Path 8" d="M174.768,373.785l.784,8.609a11.057,11.057,0,0,0,7.218.877l-.729-10.063Z" transform="translate(-117.821 -133.324)" fill="#fba691"/>
        <g id="Group_6" data-name="Group 6" transform="translate(56.057 246.711)">
          <path id="Path_9" data-name="Path 9" d="M181.214,381.961s1.514-2.1,2.742-2.024,10.795,7.455,14.044,8.03,2.655,2.97,2.078,4.2-25.732.524-25.732.524-.927-8.12-.135-10.431S178.688,382.543,181.214,381.961Z" transform="translate(-173.891 -379.935)" fill="#2e3062"/>
        </g>
        <g id="Group_10" data-name="Group 10" transform="translate(67.636 249.449)">
          <g id="Group_7" data-name="Group 7" transform="translate(1.38 1.223)">
            <path id="Path_10" data-name="Path 10" d="M187.253,387.389a.44.44,0,0,1-.347-.029.461.461,0,0,1-.2-.607,6.646,6.646,0,0,1,2.165-2.5A3.016,3.016,0,0,1,192,384.3a.459.459,0,0,1,.124.625.432.432,0,0,1-.612.111,2.147,2.147,0,0,0-2.2,0,5.869,5.869,0,0,0-1.814,2.135A.435.435,0,0,1,187.253,387.389Z" transform="translate(-186.662 -383.838)" fill="#fff"/>
          </g>
          <g id="Group_8" data-name="Group 8">
            <path id="Path_11" data-name="Path 11" d="M185.893,386.184a.436.436,0,0,1-.347-.029.461.461,0,0,1-.2-.607,6.649,6.649,0,0,1,2.164-2.5,3.014,3.014,0,0,1,3.125.053.459.459,0,0,1,.125.625.432.432,0,0,1-.612.111,2.147,2.147,0,0,0-2.2,0,5.841,5.841,0,0,0-1.814,2.135A.432.432,0,0,1,185.893,386.184Z" transform="translate(-185.302 -382.633)" fill="#fff"/>
          </g>
          <g id="Group_9" data-name="Group 9" transform="translate(3.214 2.192)">
            <path id="Path_12" data-name="Path 12" d="M189.06,388.345a.433.433,0,0,1-.346-.029.458.458,0,0,1-.2-.606,6.638,6.638,0,0,1,2.164-2.5,3.012,3.012,0,0,1,3.125.053.46.46,0,0,1,.125.625.432.432,0,0,1-.612.111,2.149,2.149,0,0,0-2.2,0,5.848,5.848,0,0,0-1.815,2.135A.425.425,0,0,1,189.06,388.345Z" transform="translate(-188.47 -384.794)" fill="#fff"/>
          </g>
        </g>
        <path id="Path_13" data-name="Path 13" d="M170.423,281.7l-5.228,43.267a144.648,144.648,0,0,0-9.161,14.508c-3.752,6.835-13.752,24.57-13.752,24.57l6.047,4.611,33.124-34.325,8.818-53.051Z" transform="translate(-118.3 -134.678)" fill="#564c22"/>
        <path id="Path_14" data-name="Path 14" d="M149.853,367.365a6.673,6.673,0,0,1-2.745,3.073l-7.023-5.931a10.578,10.578,0,0,1,2.393-3.248Z" transform="translate(-118.332 -133.5)" fill="#ffd300"/>
        <path id="Path_15" data-name="Path 15" d="M143.652,283.481s9.327,22.933,21.45,40.817c0,0,1.81,17.4,4.906,26.67,1.356,4.056,3.982,23.277,3.982,23.277l9.2-.418-2.373-53.441-9.728-38.707Z" transform="translate(-118.28 -134.672)" fill="#7c6421"/>
        <path id="Path_16" data-name="Path 16" d="M183.618,372.178a7.738,7.738,0,0,1,0,4.772l-10.644.3a12.254,12.254,0,0,1-.44-4.654Z" transform="translate(-117.855 -133.339)" fill="#ffd300"/>
        <g id="Group_13" data-name="Group 13" transform="translate(25.056 57.883)">
          <g id="Group_12" data-name="Group 12" transform="translate(0)">
            <g id="Group_11" data-name="Group 11">
              <path id="Path_17" data-name="Path 17" d="M186.5,202.17c1.387,1.729,4.168,19.357,4.6,37.251.011.413.019.824.031,1.235q.067,2.842.123,5.7c.039,1.878.072,3.753.1,5.612.05,3.044.094,6.041.131,8.928,0,.328.006.654.011.979.033,2.815.06,5.513.08,8.034,0,.331.005.657.007.98.029,3.783.047,7.133.05,9.822v0c0,.377,0,.735,0,1.086,0,1.88-.005,3.372-.018,4.379a94.394,94.394,0,0,1-13.36,2.6l-.355.044c-.2.024-.4.047-.594.069l-.148.013c-.772.086-1.541.16-2.316.223a89.475,89.475,0,0,1-11.485.206c-.337-.015-.67-.034-1.007-.054-.3-.015-.6-.034-.905-.056-.135-.007-.272-.016-.409-.027-.256-.017-.507-.038-.764-.056a93.316,93.316,0,0,1-16.874-2.963c-.029-2.215-.056-6.729-.065-12.549,0-.32,0-.643,0-.971-.007-6.42.018-14.3.094-22.416.007-.642.013-1.283.022-1.927.007-.744.013-1.493.022-2.243,0-.126,0-.254.005-.379,0-.176.006-.35.009-.528,0-.353.006-.708.013-1.058.007-.514.013-1.027.022-1.536,0-.39.011-.778.015-1.166.012-.773.025-1.546.037-2.315.272-16.11.816-30.915,1.851-34.683a2.761,2.761,0,0,1,.3-.753,4.685,4.685,0,0,1,.4-.512,8.528,8.528,0,0,1,.67-.676,48.546,48.546,0,0,1,7.753-5.183c.352-.2.709-.406,1.06-.608.054-.029,8.247-2.793,8.3-2.824l8.571.6S184.46,199.628,186.5,202.17Z" transform="translate(-143.34 -193.849)" fill="#ffe07d"/>
            </g>
          </g>
        </g>
        <g id="Group_14" data-name="Group 14" transform="translate(25.196 88.965)">
          <path id="Path_18" data-name="Path 18" d="M151.917,224.928a.446.446,0,0,0-.8-.273,44.245,44.245,0,0,0-6.751,13.392c-.315,1-.587,1.977-.823,2.9,0,.388-.011.776-.015,1.166-.009.509-.015,1.022-.022,1.536-.007.35-.011.705-.013,1.058,0,.178-.005.352-.009.528,0,.126,0,.254-.005.38a54.2,54.2,0,0,1,1.743-7.328,43.359,43.359,0,0,1,6.6-13.094.448.448,0,0,0,.09-.268Z" transform="translate(-143.478 -224.48)" fill="#ffd300"/>
        </g>
        <g id="Group_15" data-name="Group 15" transform="translate(34.933 119.947)">
          <path id="Path_19" data-name="Path 19" d="M153.519,271.237h0c9.254-.041,17.154-4.252,22.151-7.778a50.685,50.685,0,0,0,8.712-7.715.445.445,0,0,0-.682-.573,49.781,49.781,0,0,1-8.564,7.575c-4.888,3.446-12.607,7.562-21.622,7.6a.445.445,0,0,0,0,.89Z" transform="translate(-153.074 -255.012)" fill="#ffd300"/>
        </g>
        <g id="Group_16" data-name="Group 16" transform="translate(42.617 133.699)">
          <path id="Path_20" data-name="Path 20" d="M163.053,274.182c8.031,0,16.039-4.576,16.4-4.786a.446.446,0,1,0-.446-.771c-.094.054-9.517,5.436-17.872,4.571a.44.44,0,0,0-.488.4.445.445,0,0,0,.4.489A19.468,19.468,0,0,0,163.053,274.182Z" transform="translate(-160.646 -268.564)" fill="#ffd300"/>
        </g>
        <g id="Group_17" data-name="Group 17" transform="translate(40.242 62.81)">
          <path id="Path_21" data-name="Path 21" d="M160.786,208.456c7.739-2.145,14.234-8.694,14.529-8.995a.446.446,0,0,0-.636-.624c-.076.078-7.719,7.781-16,9.179a.446.446,0,1,0,.148.879A19.315,19.315,0,0,0,160.786,208.456Z" transform="translate(-158.306 -198.704)" fill="#ffd300"/>
        </g>
        <g id="Group_34" data-name="Group 34" transform="translate(33.689 18.051)">
          <path id="Path_22" data-name="Path 22" d="M154.367,172.92c0,7.826,4.818,13.218,12.643,13.218s13.278-5.8,13.278-13.623-4.633-13.754-12.458-13.754C158.445,158.761,154.367,165.095,154.367,172.92Z" transform="translate(-151.811 -154.534)" fill="#2e3062"/>
          <path id="Path_23" data-name="Path 23" d="M154.568,175.057s-2.735-4.136-1.288-7.323c1.5-3.3.737-2.576,1.109-5.055s2.179-3.5,4.34-3.856.68-2.844,3.676-3.738,5.4,2.234,7.322.833,6.659-2.09,7.988,0a3.614,3.614,0,0,0,3.928,2.009c1.706-.081,3.992,2.609,2.449,5.086s-4.142,1.493-3.783,3.2,2.557,4.71-.389,8.529C179.029,175.9,154.568,175.057,154.568,175.057Z" transform="translate(-151.833 -154.595)" fill="#2e3062"/>
          <g id="Group_20" data-name="Group 20" transform="translate(0 20.304)">
            <path id="Path_24" data-name="Path 24" d="M156.163,176.056s-2.175-2.9-3.791-.5.67,9.477,4.627,7.748Z" transform="translate(-151.848 -174.605)" fill="#fb876b"/>
            <g id="Group_18" data-name="Group 18" transform="translate(0.849 2.538)">
              <path id="Path_25" data-name="Path 25" d="M156.122,181.078a.334.334,0,0,1-.322-.245,5.17,5.17,0,0,0-2.9-3.08.335.335,0,0,1,.236-.626,5.761,5.761,0,0,1,3.308,3.525.336.336,0,0,1-.232.413A.339.339,0,0,1,156.122,181.078Z" transform="translate(-152.684 -177.106)" fill="#d45c48"/>
            </g>
            <g id="Group_19" data-name="Group 19" transform="translate(1.667 3.852)">
              <path id="Path_26" data-name="Path 26" d="M153.825,179.958a.329.329,0,0,1-.181-.054.333.333,0,0,1-.1-.462,3.038,3.038,0,0,1,1.255-1.012.334.334,0,0,1,.273.61,2.414,2.414,0,0,0-.966.764A.333.333,0,0,1,153.825,179.958Z" transform="translate(-153.49 -178.401)" fill="#d45c48"/>
            </g>
          </g>
          <g id="Group_26" data-name="Group 26" transform="translate(25.883 20.304)">
            <path id="Path_27" data-name="Path 27" d="M178.191,176.056s2.174-2.9,3.79-.5-.669,9.477-4.626,7.748Z" transform="translate(-177.355 -174.605)" fill="#fb876b"/>
            <g id="Group_23" data-name="Group 23" transform="translate(0.529 2.538)">
              <g id="Group_22" data-name="Group 22">
                <g id="Group_21" data-name="Group 21">
                  <path id="Path_28" data-name="Path 28" d="M178.212,181.078a.334.334,0,0,0,.322-.245,5.17,5.17,0,0,1,2.9-3.08.335.335,0,0,0-.236-.626,5.761,5.761,0,0,0-3.308,3.525.336.336,0,0,0,.231.413A.353.353,0,0,0,178.212,181.078Z" transform="translate(-177.877 -177.106)" fill="#d45c48"/>
                </g>
              </g>
            </g>
            <g id="Group_25" data-name="Group 25" transform="translate(1.704 3.852)">
              <g id="Group_24" data-name="Group 24">
                <path id="Path_29" data-name="Path 29" d="M180.48,179.958a.329.329,0,0,0,.181-.054.334.334,0,0,0,.1-.462,3.046,3.046,0,0,0-1.255-1.012.334.334,0,1,0-.273.61,2.423,2.423,0,0,1,.966.764A.333.333,0,0,0,180.48,179.958Z" transform="translate(-179.034 -178.401)" fill="#d45c48"/>
              </g>
            </g>
          </g>
          <path id="Path_30" data-name="Path 30" d="M172.562,189.094v7.448a5.157,5.157,0,0,1-3.495,2.012c-3.264.387-6.8-3.064-6.8-3.064v-5.9Z" transform="translate(-151.694 -154.087)" fill="#fba691"/>
          <path id="Path_31" data-name="Path 31" d="M172.562,189.094v3.123c-1.9,2.115-5.289,2.642-10.3,1.9v-4.532Z" transform="translate(-151.694 -154.087)" fill="#fb876b"/>
          <path id="Path_32" data-name="Path 32" d="M154.965,176.1q.043.612.1,1.238c.106,1.048.248,2.126.439,3.2.007.039.012.075.019.109.945,5.191,3.071,10.294,7.651,11.931,10.377,3.7,14.08-5.192,15.563-10.38.163-.575.313-1.216.441-1.9.005-.026.01-.055.017-.086.144-.768.269-1.586.374-2.428.079-.624.146-1.257.206-1.9.151-1.549.25-3.1.315-4.484a7.321,7.321,0,0,0-4.69-7.185c-4.257-1.637-10.718-2.932-16.84.54a7.351,7.351,0,0,0-3.731,6.255C154.806,172.447,154.828,174.207,154.965,176.1Z" transform="translate(-151.804 -154.478)" fill="#fba691"/>
          <path id="Path_33" data-name="Path 33" d="M154.963,175.907q.043.612.1,1.238c.106,1.048.248,2.126.439,3.2.007.039.012.075.019.109.945,5.191,3.071,10.294,7.651,11.931,10.377,3.7,14.08-5.192,15.563-10.38.163-.575.313-1.216.441-1.9.005-.026.01-.055.017-.086.144-.768.269-1.586.374-2.428.079-.624.146-1.257.206-1.9l-1.555.406c-.443,2.348-1.111,5.77-1.98,7.365-1.36-3.32-8.925-.577-8.925-.577s-6.744-2.4-9.028-.015a62.9,62.9,0,0,1-2.052-6.772Zm12.139,8.207c5.444-.746,6.8.645,7.051,2.258a9.362,9.362,0,0,1-4.637,2.788,10.761,10.761,0,0,1-8.414-1.79C160.824,186.115,160.51,182.454,167.1,184.114Z" transform="translate(-151.802 -154.284)" fill="#2e3062"/>
          <path id="Path_34" data-name="Path 34" d="M163.689,176.462c0,.752-.388,1.361-.866,1.361s-.866-.609-.866-1.361.388-1.361.866-1.361S163.689,175.71,163.689,176.462Z" transform="translate(-151.699 -154.293)" fill="#2e3062"/>
          <path id="Path_35" data-name="Path 35" d="M173.579,176.462c0,.752-.387,1.361-.865,1.361s-.866-.609-.866-1.361.388-1.361.866-1.361S173.579,175.71,173.579,176.462Z" transform="translate(-151.553 -154.293)" fill="#2e3062"/>
          <path id="Path_36" data-name="Path 36" d="M175.185,171.848s-2.729-1.079-4.831-.17l.211,1.169a13.456,13.456,0,0,1,4.638.369A2.031,2.031,0,0,0,175.185,171.848Z" transform="translate(-151.575 -154.349)" fill="#2e3062"/>
          <path id="Path_37" data-name="Path 37" d="M159.445,171.848s2.73-1.079,4.831-.17l-.21,1.169a13.461,13.461,0,0,0-4.639.369A2.031,2.031,0,0,1,159.445,171.848Z" transform="translate(-151.738 -154.349)" fill="#2e3062"/>
          <g id="Group_27" data-name="Group 27" transform="translate(14.377 21.489)">
            <path id="Path_38" data-name="Path 38" d="M167.5,182.352a3.567,3.567,0,0,1-1.233-.106.335.335,0,1,1,.177-.645,2.008,2.008,0,0,0,1.347-.038.364.364,0,0,0,.126-.329,50.765,50.765,0,0,0-.823-5.061.335.335,0,0,1,.656-.135,49.825,49.825,0,0,1,.836,5.183,1.024,1.024,0,0,1-.384.87A1.407,1.407,0,0,1,167.5,182.352Z" transform="translate(-166.016 -175.772)" fill="#fb876b"/>
          </g>
          <path id="Path_39" data-name="Path 39" d="M162.968,184.233c.273,1.376,1.181,3.906,4.243,3.906s3.928-2.312,4.223-3.906Z" transform="translate(-151.684 -154.159)" fill="#fff"/>
          <path id="Path_40" data-name="Path 40" d="M179.741,176.292h-1.515a10.971,10.971,0,0,0-.842-4.586c-1.036-2.779,1.168-4-.614-5.4s-6.22-.8-9.306-.9a66.321,66.321,0,0,0-9.306.224c-1.214.278-.548,2.293-.1,3.856s-1.489,3.285-1.812,4.9a7.119,7.119,0,0,0,0,1.9h-1.263c-.149-1.967-.173-3.8-.145-5.281a7.35,7.35,0,0,1,3.729-6.254c6.124-3.471,12.586-2.178,16.841-.542a7.327,7.327,0,0,1,4.692,7.187C180.024,172.9,179.912,174.607,179.741,176.292Z" transform="translate(-151.804 -154.478)" fill="#2e3062"/>
          <g id="Group_33" data-name="Group 33" transform="translate(1.447 18.858)">
            <g id="Group_28" data-name="Group 28" transform="translate(15.719)">
              <path id="Path_41" data-name="Path 41" d="M168.765,177.164a3.985,3.985,0,1,1,3.985,3.985A3.989,3.989,0,0,1,168.765,177.164Zm.622,0a3.363,3.363,0,1,0,3.363-3.364A3.367,3.367,0,0,0,169.387,177.164Z" transform="translate(-168.765 -173.179)" fill="#fff"/>
            </g>
            <g id="Group_29" data-name="Group 29" transform="translate(4.827)">
              <path id="Path_42" data-name="Path 42" d="M158.031,177.164a3.985,3.985,0,1,1,3.985,3.985A3.989,3.989,0,0,1,158.031,177.164Zm.622,0a3.363,3.363,0,1,0,3.363-3.364A3.367,3.367,0,0,0,158.653,177.164Z" transform="translate(-158.031 -173.179)" fill="#fff"/>
            </g>
            <g id="Group_30" data-name="Group 30" transform="translate(22.706 0.659)">
              <path id="Path_43" data-name="Path 43" d="M175.961,175.871a.308.308,0,0,0,.218-.09h0a4.9,4.9,0,0,1,4.2-1.22.311.311,0,0,0,.141-.6,5.438,5.438,0,0,0-4.782,1.384.311.311,0,0,0,.219.531Z" transform="translate(-175.65 -173.829)" fill="#fff"/>
            </g>
            <g id="Group_31" data-name="Group 31" transform="translate(0 0.573)">
              <path id="Path_44" data-name="Path 44" d="M158.7,175.872a.31.31,0,0,0,.169-.57c-.119-.078-2.938-1.9-5.337-1.5a.311.311,0,0,0,.1.613c2.16-.356,4.871,1.391,4.9,1.408A.3.3,0,0,0,158.7,175.872Z" transform="translate(-153.274 -173.744)" fill="#fff"/>
            </g>
            <g id="Group_32" data-name="Group 32" transform="translate(12.075 1.46)">
              <path id="Path_45" data-name="Path 45" d="M165.677,176.248a2.511,2.511,0,0,1,1.715-1.008,2.29,2.29,0,0,1,1.635,1.006l.52-.339a2.876,2.876,0,0,0-2.154-1.289,3.1,3.1,0,0,0-2.219,1.266Z" transform="translate(-165.173 -174.618)" fill="#fff"/>
            </g>
          </g>
        </g>
        <path id="Path_46" data-name="Path 46" d="M204.413,244.789l8.876,6.808a2.559,2.559,0,0,0,3.589-.475l17.244-22.482,7.133-9.3-12.937-9.925-4.225,5.508L203.941,241.2A2.558,2.558,0,0,0,204.413,244.789Z" transform="translate(-117.399 -135.737)" fill="#3b3d61"/>
        <path id="Path_47" data-name="Path 47" d="M223.792,214.926a35.3,35.3,0,0,0,10.03,13.713l7.133-9.3-12.937-9.925Z" transform="translate(-117.099 -135.737)" fill="#585b91"/>
        <path id="Rectangle_3" data-name="Rectangle 3" d="M4.659,0h.8a4.659,4.659,0,0,1,4.659,4.659V50.3a0,0,0,0,1,0,0H0a0,0,0,0,1,0,0V4.659A4.659,4.659,0,0,1,4.659,0Z" transform="translate(64.857 155.446) rotate(-142.513)" fill="#3b3d61"/>
        <g id="Group_35" data-name="Group 35" transform="translate(96.67)">
          <path id="Path_48" data-name="Path 48" d="M223.53,154.574a45.859,45.859,0,1,0,64.341-8.151A45.858,45.858,0,0,0,223.53,154.574Zm5.559,4.309a38.826,38.826,0,1,1,6.9,54.472A38.87,38.87,0,0,1,229.088,158.883Z" transform="translate(-213.914 -136.806)" fill="#3b3d61"/>
        </g>
        <path id="Path_52" data-name="Path 52" d="M185.831,263.434h1.563a3.413,3.413,0,0,0,3.084-2.07,20.484,20.484,0,0,1,.913-1.908c.731-.974,2.723-2.608,3.469-2.658s.609,1.338.081,1.947a12.541,12.541,0,0,0-1.805,2.245c-.446.861,3.652,2.606,5.316,3.012s4.586-.487,4.87.892-1.908,1.583-1.908,1.583.642,1.243-1.176,2.273a1.68,1.68,0,0,1-.852,1.867,1.877,1.877,0,0,1-1.232,1.947c-1.366.406-5.627,1.642-13.987-3.431Z" transform="translate(-117.683 -135.039)" fill="#fba691"/>
        <g id="Group_39" data-name="Group 39" transform="translate(23.789 67.235)">
          <g id="Group_38" data-name="Group 38" transform="translate(0 0)">
            <g id="Group_37" data-name="Group 37">
              <g id="Group_36" data-name="Group 36">
                <path id="Path_53" data-name="Path 53" d="M157.764,228.733c3.156,11.929,6.253,17.2,6.253,17.2a44.1,44.1,0,0,0,10.819,10.531,141.992,141.992,0,0,0,13.178,7.761c-1.4,1.821-2.392,5.423-1.85,6.5-16.887,0-31.657-16-31.657-16-11.816-20.563-12.586-37.31-12.393-43.41a11.652,11.652,0,0,1,1.877-6.047,6.057,6.057,0,0,1,2.271-2.205,12.3,12.3,0,0,1,6.826,7.831C154.849,216.839,157.764,228.733,157.764,228.733Z" transform="translate(-142.091 -203.065)" fill="#ffd300"/>
              </g>
            </g>
          </g>
        </g>
        <path id="Path_54" data-name="Path 54" d="M233.073,230.335s-3.757-1.327-5.483-.609,3.057,3.309,3.057,3.309-5.8-3.087-6.8-1.843,4.546,4.4,4.546,4.4-4.248-1.493-5.11-.616,3.1,3.352,3.1,3.352-3.486-.841-4.213-.249,2.362,3.075,4.325,3.732,2.277-2.1,2.277-2.1,1.846-1.626,1.6-2.753c0,0,1.914-1.291,2.05-2.611C232.418,234.347,235.12,231.969,233.073,230.335Z" transform="translate(-117.124 -135.441)" fill="#fba691"/>
      </g>
    </g>
    <g id="Group_115" data-name="Group 115" transform="translate(478.474 151.412)">
      <path id="Path_448" data-name="Path 448" d="M-174.528,179.247A38.876,38.876,0,0,0-146.954,226.8a39.2,39.2,0,0,0,5.346,1.034,38.792,38.792,0,0,0,13.541-.735,39.232,39.232,0,0,0,12.7-5.48A38.729,38.729,0,0,0-101.275,205a38.852,38.852,0,0,0,2.008-5.691,38.877,38.877,0,0,0-27.573-47.557,39.169,39.169,0,0,0-5.951-1.1,38.893,38.893,0,0,0-21.48,3.888,39.124,39.124,0,0,0-11.1,8.243,38.534,38.534,0,0,0-7.394,11.337A38.85,38.85,0,0,0-174.528,179.247Z" transform="translate(0 0)" fill="#fff" opacity="0.4"/>
      <line id="Line_1" data-name="Line 1" x2="30.601" y2="52.922" transform="translate(-172.815 174.919)" fill="#fff" opacity="0.4"/>
    </g>
  </g>
</svg>
